<?xml version="1.0" encoding="utf-8"?>
<!-- Generator: Adobe Illustrator 18.1.0, SVG Export Plug-In . SVG Version: 6.00 Build 0)  -->
<svg version="1.1" id="Calque_1" xmlns="http://www.w3.org/2000/svg" xmlns:xlink="http://www.w3.org/1999/xlink" x="0px" y="0px"
	 width="100px" height="64.3px" viewBox="-589 368.7 100 64.3" style="enable-background:new -589 368.7 100 64.3;"
	 xml:space="preserve">
<style type="text/css">
	.st0{fill:#E35252;}
</style>
<g>
	<g>
		<path class="st0" d="M-539,374.3L-539,374.3L-539,374.3z"/>
		<path class="st0" d="M-521.8,415.4c-2.1-0.7-5.4-0.9-6.9-1.5c-1-0.4-2.6-0.8-3.2-1.5c-0.5-0.7-0.5-5.2-0.5-5.2s1.3-1.2,1.8-2.6
			s0.9-4.9,0.9-4.9s0.1,0,0.2,0c0.4,0,1.1-0.2,1.4-2c0.4-2.1,1.2-3.1,1-4.7c-0.2-1.1-0.6-1.2-0.8-1.2c-0.2,0-0.2,0-0.2,0
			s1.1-1.6,1.1-6.8c0-5.3-4.1-10.6-11.9-10.6s-11.9,5.4-11.9,10.8c0,5.3,1.1,6.8,1.1,6.8s-0.1,0-0.2,0c-0.2,0-0.7,0.2-0.8,1.2
			c-0.2,1.6,0.6,2.6,1,4.7c0.3,1.7,1,2,1.4,2c0.2,0,0.2,0,0.2,0s0.3,3.6,0.9,4.9c0.5,1.3,1.8,2.6,1.8,2.6s0,4.5-0.5,5.2
			s-2.1,1.1-3.2,1.5c-1.5,0.6-4.9,0.8-6.9,1.5c-2.1,0.5-8.4,3.5-8.4,11.8h51.1C-513.4,419.1-519.8,416.1-521.8,415.4z"/>
	</g>
	<path class="st0" d="M-559.6,413c1.6-0.8,3.3-0.8,4.5-1c0,0,0.7-1.2-1.6-1.6c0,0-3.1-0.8-3.5-1.2c-0.3-0.4-0.2-2.9-0.2-2.9
		s4.4-0.2,6.2-1.7c-2.9-4.3-1.3-9.2-1.9-13.9c-0.6-4.6-3.4-7.6-8.7-7.6c0,0,0,0-0.2,0l0,0c-5.1,0-7.8,2.9-8.4,7.6
		c-0.6,4.7,1.1,10.2-1.8,13.9c1.6,1.5,5.7,1.6,6.2,1.6l0,0l0,0c0,0,0.2,2.6-0.2,3.1c-0.3,0.4-1.5,0.8-2.2,1
		c-1.6,0.3-3.3,0.9-4.8,1.4c-1.4,0.5-4.1,3.4-4.1,6.8h14.8C-565.1,417.1-562.3,414.3-559.6,413z"/>
	<path class="st0" d="M-512.5,418.5h14.8c0-3.5-2.7-6.4-4.1-6.8s-3.1-1.1-4.8-1.4c-0.7-0.2-1.8-0.6-2.2-1c-0.3-0.4-0.2-3.1-0.2-3.1
		l0,0l0,0c0.5,0,4.5-0.1,6.2-1.6c-2.9-3.7-1.2-9.2-1.8-13.9c-0.6-4.6-3.2-7.6-8.4-7.6l0,0c-0.2,0-0.2,0-0.2,0
		c-5.4,0-8.1,2.9-8.7,7.6c-0.6,4.6,0.9,9.6-1.9,13.9c1.7,1.6,6.2,1.7,6.2,1.7s0.2,2.5-0.2,2.9c-0.3,0.4-3.5,1.2-3.5,1.2
		c-2.3,0.4-1.6,1.6-1.6,1.6c1.2,0.2,2.9,0.2,4.5,1C-515.7,414.3-512.9,417.1-512.5,418.5z"/>
</g>
</svg>
