<?xml version="1.0" encoding="utf-8"?>
<!-- Generator: Adobe Illustrator 18.1.0, SVG Export Plug-In . SVG Version: 6.00 Build 0)  -->
<svg version="1.1" id="Calque_1" xmlns="http://www.w3.org/2000/svg" xmlns:xlink="http://www.w3.org/1999/xlink" x="0px" y="0px"
	 width="440.5px" height="440.5px" viewBox="0 0 440.5 440.5" enable-background="new 0 0 440.5 440.5" xml:space="preserve">
<g>
	<circle fill="#4D4D4D" cx="220.2" cy="220.2" r="220.2"/>
	<g>
		
			<rect x="119.1" y="188.8" transform="matrix(0.6936 -0.7203 0.7203 0.6936 -95.0083 224.6913)" fill="#EAEAEA" width="195.1" height="70.5"/>
		<path fill="#EAEAEA" d="M282.4,107.1L282.4,107.1c-0.2,0.2-0.3,0.6-0.3,0.6l-0.1-0.1l-10.1,10.5l50.7,48.8l10.1-10.5l0.2,0.2
			c0,0,0.1-0.5,0.3-0.7l0,0c5.6-5.8,2.4-17.9-7.4-27.3l-15.4-14.8C300.5,104.4,287.9,101.3,282.4,107.1z"/>
		<path fill="#FFFFFF" d="M112.8,280.8l-5.2,56.2l55.9-7.3L112.8,280.8z M113.8,312.2l18.5,17.8l-20.9,3.1L113.8,312.2z"/>
	</g>
</g>
</svg>
