<?xml version="1.0" encoding="utf-8"?>
<!-- Generator: Adobe Illustrator 18.1.0, SVG Export Plug-In . SVG Version: 6.00 Build 0)  -->
<svg version="1.1" id="Calque_1" xmlns="http://www.w3.org/2000/svg" xmlns:xlink="http://www.w3.org/1999/xlink" x="0px" y="0px"
	 width="100px" height="100px" viewBox="-419 180.9 100 100" style="enable-background:new -419 180.9 100 100;"
	 xml:space="preserve">
<style type="text/css">
	.st0{fill:#4D4D4D;}
</style>
<g>
	<path class="st0" d="M-346.4,204.6c-1.9,0-3.4,1.5-3.4,3.4c0,1.9,1.5,3.4,3.4,3.4c1.9,0,3.4-1.5,3.4-3.4S-344.5,204.6-346.4,204.6z
		"/>
	<path class="st0" d="M-369,180.9c-27.6,0-50,22.4-50,50s22.4,50,50,50s50-22.4,50-50S-341.4,180.9-369,180.9z M-403.2,227.4
		c0-7.3,5.9-13.3,13.2-13.3c7.3,0,13.2,6,13.2,13.3c0,7.6-5.7,16-9.7,20.2c-1.6,1.7-3.5,3.9-3.5,3.9s-1.7-2.2-3.2-3.8
		C-397.3,243.3-403.2,234.3-403.2,227.4z M-390.2,258c-1.6,0-2.9-1-2.9-2.2c0-1.2,1.3-2.2,2.9-2.2c1.6,0,2.9,1,2.9,2.2
		C-387.3,257-388.6,258-390.2,258z M-385.5,260.5c-0.8-0.4-1.6-0.9-2.3-1.5l0.9-1.3c0.7,0.5,1.4,1,2.1,1.3L-385.5,260.5z
		 M-380.2,262.1c-0.9-0.1-1.8-0.2-2.8-0.5l0.5-1.5c0.8,0.2,1.6,0.4,2.4,0.5L-380.2,262.1z M-377.4,261.9l-0.3-1.6
		c0.8-0.2,1.5-0.4,2.3-0.8l0.7,1.4C-375.5,261.4-376.4,261.7-377.4,261.9z M-372.3,259.5l-1-1.2c0.6-0.5,1.2-1.1,1.8-1.8l1.2,1
		C-371,258.3-371.7,258.9-372.3,259.5z M-368.1,254.5c-0.2,0.3-0.4,0.6-0.6,0.9l-1.3-0.9c0.2-0.3,0.4-0.6,0.6-0.8
		c0.3-0.4,0.6-0.9,0.8-1.3l1.3,0.8C-367.5,253.6-367.8,254.1-368.1,254.5z M-365.9,250.8l-1.4-0.7c0.4-0.8,0.7-1.5,1-2.3l1.5,0.6
		C-365.2,249.2-365.5,250-365.9,250.8z M-364,245.8l-1.5-0.4c0.2-0.8,0.4-1.6,0.6-2.5l1.6,0.3C-363.6,244.1-363.8,244.9-364,245.8z
		 M-362.8,239.5c0,0.3-0.1,0.7-0.2,1l-1.6-0.2c0-0.3,0.1-0.7,0.2-1c0.1-0.5,0.2-1.1,0.2-1.6l1.6,0.2
		C-362.7,238.5-362.7,239-362.8,239.5z M-362.1,235.4l-1.5-0.4c0.2-1,0.5-1.8,0.8-2.6l1.5,0.6C-361.6,233.8-361.9,234.5-362.1,235.4
		z M-359,229.5c-0.4,0.4-0.8,0.9-1.2,1.4l-1.3-0.9c0.4-0.6,0.8-1.1,1.3-1.6c0.2-0.2,0.3-0.3,0.5-0.5l1.1,1.2
		C-358.7,229.2-358.9,229.4-359,229.5z M-356.6,227.7l-0.8-1.4c0.8-0.4,1.6-0.8,2.5-1.1l0.5,1.5
		C-355.1,226.9-355.9,227.3-356.6,227.7z M-351.9,226l-0.3-1.6c0.8-0.2,1.8-0.3,2.7-0.4l0.1,1.6C-350.2,225.7-351.1,225.8-351.9,226
		z M-346.5,226.2c-1.1,0-2-0.7-2-1.5c0-0.8,0.9-1.5,2-1.5s2,0.7,2,1.5C-344.5,225.5-345.4,226.2-346.5,226.2z M-344.4,219.7
		c-0.9,1-2,2.2-2,2.2s-1-1.2-1.8-2.2c-2.3-2.5-5.7-7.6-5.7-11.6c0-4.2,3.4-7.6,7.5-7.6c4.2,0,7.5,3.4,7.5,7.6
		C-338.8,212.5-342.1,217.3-344.4,219.7z"/>
	<path class="st0" d="M-384.1,227.4c0-3.3-2.7-6-6-6c-3.3,0-6,2.7-6,6c0,3.3,2.7,6,6,6C-386.8,233.4-384.1,230.7-384.1,227.4z"/>
</g>
</svg>
