<?xml version="1.0" encoding="utf-8"?>
<!-- Generator: Adobe Illustrator 18.1.0, SVG Export Plug-In . SVG Version: 6.00 Build 0)  -->
<svg version="1.1" id="Calque_1" xmlns="http://www.w3.org/2000/svg" xmlns:xlink="http://www.w3.org/1999/xlink" x="0px" y="0px"
	 width="440.5px" height="440.5px" viewBox="0 0 440.5 440.5" enable-background="new 0 0 440.5 440.5" xml:space="preserve">
<g>
	<circle fill="#4D4D4D" cx="220.2" cy="220.2" r="220.2"/>
	<g>
		<g>
			<path fill="#FFFFFF" d="M318.9,109.3h-55.5v-9.1c0-4.9-4.1-9.9-8.6-9.9h-60.4c-4.5,0-7,4.9-7,9.9v9.1h-51.8
				c-5.6,0-10.1,5.5-10.1,11.5c0,0.3,0,0.5,0,1.5h-0.2v10h203v-10h0.5c0-1,0-1.2,0-1.5C329,114.7,324.5,109.3,318.9,109.3z
				 M200.4,109.1v-3.7c0-3.1,1-5.2,3.9-5.2H245c2.8,0,5.4,2.1,5.4,5.2v3.7c0,0.2-0.3,0.1-0.3,0.1h-51
				C199.2,109.3,200.4,109.3,200.4,109.1z"/>
		</g>
		<path fill="#FFFFFF" d="M324,142.3H130.6l6.3,195l0,0.1c0.1,4.6,4.2,7.9,9.1,7.9h162.5c4.9,0,9.2-3.5,9.3-8l0.5-9.7v0.1L324,142.3
			z M170.5,324.3l-4.2-163h15.8l4.2,163H170.5z M232.4,324.3h-16v-163h16V324.3z M278.4,324.3h-15.8l4.2-163h15.8L278.4,324.3z"/>
	</g>
</g>
</svg>
