<?xml version="1.0" encoding="utf-8"?>
<!-- Generator: Adobe Illustrator 18.1.0, SVG Export Plug-In . SVG Version: 6.00 Build 0)  -->
<svg version="1.1" id="Calque_1" xmlns="http://www.w3.org/2000/svg" xmlns:xlink="http://www.w3.org/1999/xlink" x="0px" y="0px"
	 width="105.1px" height="113.1px" viewBox="0 0 105.1 113.1" enable-background="new 0 0 105.1 113.1" xml:space="preserve">
<g>
	<g>
		<path fill="#EAEAEA" d="M10,10c-5.5,0-10,4.5-10,10v69.7c0,5.5,4.5,10,10,10h29.9h10h29.9c5.5,0,10-4.5,10-10V19.9
			c0-5.5-4.5-10-10-10H49.8h-10H10z"/>
		<path fill="#B3B3B3" d="M10,10c-5.5,0-10,4.5-10,10v14.9h89.7V19.9c0-5.5-4.5-10-10-10H49.8h-10H10z"/>
		<path fill="#EAEAEA" d="M14.9,0c-2.8,0-5,2.2-5,5v14.9c0,2.8,2.2,5,5,5s5-2.2,5-5V5C19.9,2.2,17.7,0,14.9,0z"/>
		<path fill="#EAEAEA" d="M74.7,0c-2.7,0-5,2-5,5v14.9c0,2.5,2.2,5,5,5s5-2.5,5-5V5C79.7,2,77.5,0,74.7,0z"/>
		<path fill="#B3B3B3" d="M10,49.8v10h10v-10H10z M24.9,49.8v10h10v-10H24.9z M39.9,49.8v10h10v-10H39.9z M54.8,49.8v10h10v-10H54.8
			z M69.7,49.8v10h10v-10H69.7z"/>
		<path fill="#B3B3B3" d="M10,64.8v10h10v-10H10z M24.9,64.8v10h10v-10H24.9z M39.9,64.8v10h10v-10H39.9z M54.8,64.8v10h10v-10H54.8
			z M69.7,64.8v10h10v-10H69.7z"/>
		<path fill="#B3B3B3" d="M10,79.7v10h10v-10H10z M24.9,79.7v10h10v-10H24.9z M39.9,79.7v10h10v-10H39.9z M54.8,79.7v10h10v-10H54.8
			z M69.7,79.7v10h10v-10H69.7z"/>
		<rect x="0" y="34.9" fill="#EAEAEA" width="89.7" height="5"/>
	</g>
	<g>
		<circle fill="#45A34B" cx="76.4" cy="84.4" r="28.7"/>
		<polygon fill="#FFFFFF" points="92.8,79.3 81.5,79.3 81.5,68 71.3,68 71.3,79.3 60,79.3 60,89.5 71.3,89.5 71.3,100.8 81.5,100.8 
			81.5,89.5 92.8,89.5 		"/>
	</g>
</g>
</svg>
