<?xml version="1.0" encoding="utf-8"?>
<!-- Generator: Adobe Illustrator 18.1.0, SVG Export Plug-In . SVG Version: 6.00 Build 0)  -->
<svg version="1.1" id="Calque_1" xmlns="http://www.w3.org/2000/svg" xmlns:xlink="http://www.w3.org/1999/xlink" x="0px" y="0px"
	 width="105.1px" height="113.1px" viewBox="-586 344.9 105.1 113.1" enable-background="new -586 344.9 105.1 113.1"
	 xml:space="preserve">
<g>
	<g>
		<path fill="#B3B3B3" d="M-576,354.9c-5.5,0-10,4.5-10,10v69.7c0,5.5,4.5,10,10,10h29.9h10h29.9c5.5,0,10-4.5,10-10v-69.8
			c0-5.5-4.5-10-10-10h-30h-10H-576V354.9z"/>
		<path fill="#4D4D4D" d="M-576,354.9c-5.5,0-10,4.5-10,10v14.9h89.7v-15c0-5.5-4.5-10-10-10h-29.9h-10H-576V354.9z"/>
		<path fill="#B3B3B3" d="M-571.1,344.9c-2.8,0-5,2.2-5,5v14.9c0,2.8,2.2,5,5,5c2.8,0,5-2.2,5-5v-14.9
			C-566.1,347.1-568.3,344.9-571.1,344.9z"/>
		<path fill="#B3B3B3" d="M-511.3,344.9c-2.7,0-5,2-5,5v14.9c0,2.5,2.2,5,5,5s5-2.5,5-5v-14.9C-506.3,346.9-508.5,344.9-511.3,344.9
			z"/>
		<path fill="#4D4D4D" d="M-576,394.7v10h10v-10H-576z M-561.1,394.7v10h10v-10H-561.1z M-546.1,394.7v10h10v-10H-546.1z
			 M-531.2,394.7v10h10v-10H-531.2z M-516.3,394.7v10h10v-10H-516.3z"/>
		<path fill="#4D4D4D" d="M-576,409.7v10h10v-10H-576z M-561.1,409.7v10h10v-10H-561.1z M-546.1,409.7v10h10v-10H-546.1z
			 M-531.2,409.7v10h10v-10H-531.2z M-516.3,409.7v10h10v-10H-516.3z"/>
		<path fill="#4D4D4D" d="M-576,424.6v10h10v-10H-576z M-561.1,424.6v10h10v-10H-561.1z M-546.1,424.6v10h10v-10H-546.1z
			 M-531.2,424.6v10h10v-10H-531.2z M-516.3,424.6v10h10v-10H-516.3z"/>
		<rect x="-586" y="379.8" fill="#B3B3B3" width="89.7" height="5"/>
	</g>
	<g>
		<circle fill="#336633" cx="-509.6" cy="429.3" r="28.7"/>
		<polygon fill="#FFFFFF" points="-493.2,424.2 -504.5,424.2 -504.5,412.9 -514.7,412.9 -514.7,424.2 -526,424.2 -526,434.4 
			-514.7,434.4 -514.7,445.7 -504.5,445.7 -504.5,434.4 -493.2,434.4 		"/>
	</g>
</g>
</svg>
