<?xml version="1.0" encoding="utf-8"?>
<!-- Generator: Adobe Illustrator 18.1.0, SVG Export Plug-In . SVG Version: 6.00 Build 0)  -->
<svg version="1.1" id="Calque_1" xmlns="http://www.w3.org/2000/svg" xmlns:xlink="http://www.w3.org/1999/xlink" x="0px" y="0px"
	 width="100px" height="100px" viewBox="-419 180.9 100 100" style="enable-background:new -419 180.9 100 100;"
	 xml:space="preserve">
<style type="text/css">
	.st0{fill:#4D4D4D;}
</style>
<g>
	<path class="st0" d="M-369,180.9c-27.6,0-50,22.4-50,50s22.4,50,50,50s50-22.4,50-50S-341.4,180.9-369,180.9z M-344.2,246.5
		c0,1.7-1.2,3-2.9,3h-43.6c-1.7,0-3.2-1.3-3.2-3v-21.8l21.9,11.4c1.6,0.8,2.3,1,3.1,1c0.8,0,1.5-0.3,3-1l21.7-11.4V246.5z
		 M-344.2,217.7l-24.9,13.1l-24.9-13.1v-2.4c0-1.7,1.5-3.1,3.2-3.1h43.6c1.7,0,2.9,1.4,2.9,3.1L-344.2,217.7L-344.2,217.7z"/>
</g>
</svg>
