<?xml version="1.0" encoding="utf-8"?>
<!-- Generator: Adobe Illustrator 18.1.0, SVG Export Plug-In . SVG Version: 6.00 Build 0)  -->
<svg version="1.1" id="Calque_1" xmlns="http://www.w3.org/2000/svg" xmlns:xlink="http://www.w3.org/1999/xlink" x="0px" y="0px"
	 width="159.9px" height="100px" viewBox="-614.7 337.3 159.9 100" enable-background="new -614.7 337.3 159.9 100"
	 xml:space="preserve">
<path fill="none" stroke="#E35252" stroke-width="10" stroke-miterlimit="10" d="M-459.8,406.7c0-14.2-11.5-25.6-25.6-25.6
	c-2.7,0-5.3,0.4-7.8,1.2c0.1-1.1,0.2-2.1,0.2-3.2c0-20.3-16.4-36.7-36.7-36.7c-15.4,0-28.6,9.5-34,23c-2.6-1.6-5.7-2.6-9-2.6
	c-9.5,0-17.1,7.7-17.1,17.1c0,0.7,0,1.3,0.1,1.9c-11.4,2.6-19.8,12.8-19.8,25c0,13,8.9,25.6,22.3,25.6l0,0h102.8l0.1,0
	C-470.7,431.9-459.8,420.6-459.8,406.7z"/>
</svg>
