<?xml version="1.0" encoding="utf-8"?>
<!-- Generator: Adobe Illustrator 18.1.0, SVG Export Plug-In . SVG Version: 6.00 Build 0)  -->
<svg version="1.1" id="Calque_1" xmlns="http://www.w3.org/2000/svg" xmlns:xlink="http://www.w3.org/1999/xlink" x="0px" y="0px"
	 width="111px" height="111px" viewBox="-587.7 333.4 111 111" enable-background="new -587.7 333.4 111 111" xml:space="preserve">
<g>
	<path fill="none" stroke="#E35252" stroke-width="10" stroke-linecap="round" stroke-miterlimit="10" d="M-481.7,427.4
		c0,6.6-6,12-13.5,12h-74.1c-7.4,0-13.5-5.4-13.5-12v-66c0-6.6,6-12,13.5-12h74.1c7.4,0,13.5,5.4,13.5,12V427.4z"/>
	<g>
		
			<line fill="none" stroke="#E35252" stroke-width="8" stroke-linecap="round" stroke-miterlimit="10" x1="-556.7" y1="337.4" x2="-556.7" y2="362.4"/>
		
			<line fill="none" stroke="#E35252" stroke-width="8" stroke-linecap="round" stroke-miterlimit="10" x1="-507.7" y1="337.4" x2="-507.7" y2="362.4"/>
		
			<line fill="none" stroke="#E35252" stroke-width="8" stroke-linecap="round" stroke-miterlimit="10" x1="-532.2" y1="337.4" x2="-532.2" y2="362.4"/>
	</g>
</g>
<g>
	<g>
		<rect x="-560.7" y="373.9" fill="#E35252" width="14.4" height="10.8"/>
		<rect x="-518.1" y="373.9" fill="#E35252" width="14.4" height="10.8"/>
		<rect x="-539.4" y="373.9" fill="#E35252" width="14.4" height="10.8"/>
	</g>
	<g>
		<rect x="-560.7" y="391" fill="#E35252" width="14.4" height="10.8"/>
		<rect x="-518.1" y="391" fill="#E35252" width="14.4" height="10.8"/>
		<rect x="-539.4" y="391" fill="#E35252" width="14.4" height="10.8"/>
	</g>
	<g>
		<rect x="-560.7" y="408.1" fill="#E35252" width="14.4" height="10.8"/>
		<rect x="-518.1" y="408.1" fill="#E35252" width="14.4" height="10.8"/>
		<rect x="-539.4" y="408.1" fill="#E35252" width="14.4" height="10.8"/>
	</g>
</g>
</svg>
