<?xml version="1.0" encoding="utf-8"?>
<!-- Generator: Adobe Illustrator 18.1.0, SVG Export Plug-In . SVG Version: 6.00 Build 0)  -->
<svg version="1.1" id="Calque_1" xmlns="http://www.w3.org/2000/svg" xmlns:xlink="http://www.w3.org/1999/xlink" x="0px" y="0px"
	 width="440.1px" height="440.1px" viewBox="0 0 440.1 440.1" enable-background="new 0 0 440.1 440.1" xml:space="preserve">
<g>
	<path fill="#4D4D4D" d="M219.7,0.1c-121.5,0-220,98.5-220,220s98.5,220,220,220c121.5,0,220-98.5,220-220S341.3,0.1,219.7,0.1z
		 M328.6,288.7c0,7.5-5.4,13.2-12.9,13.2H123.8c-7.5,0-14.2-5.6-14.2-13.2v-95.9l96.2,50.2c6.9,3.3,10.2,4.6,13.8,4.6
		s6.5-1.3,13.4-4.6l95.6-50.2V288.7z M328.6,162.1l-109.5,57.6l-109.5-57.6v-10.4c0-7.5,6.7-13.8,14.2-13.8h191.8
		c7.5,0,12.9,6.3,12.9,13.8V162.1z"/>
</g>
</svg>
