<?xml version="1.0" encoding="utf-8"?>
<!-- Generator: Adobe Illustrator 18.1.0, SVG Export Plug-In . SVG Version: 6.00 Build 0)  -->
<svg version="1.1" id="Calque_1" xmlns="http://www.w3.org/2000/svg" xmlns:xlink="http://www.w3.org/1999/xlink" x="0px" y="0px"
	 width="736.1px" height="700px" viewBox="282.3 49.6 736.1 700" enable-background="new 282.3 49.6 736.1 700"
	 xml:space="preserve">
<g>
	<path fill="#FFFFFF" d="M635.9,291.3c64.9,0,108.2,50.5,108.2,111.9c0,64.9-39.7,115.5-104.6,115.5c-61.3,0-104.6-54.1-104.6-115.5
		C534.8,341.8,574.5,291.3,635.9,291.3z M657.5,49.6c-212.9,0-375.3,155.2-375.3,357.2c0,198.5,158.8,342.8,364.4,342.8
		c61.3,0,144.3-21.6,191.2-57.7l-32.5-61.3c-46.9,32.5-108.2,46.9-158.8,46.9c-166,0-295.9-115.5-295.9-277.8
		s133.5-288.7,306.7-288.7c180.4,0,295.9,126.3,295.9,288.7c0,83-36.1,144.3-75.8,144.3c-21.6,0-36.1-14.4-36.1-43.3V215.5h-90.2
		v54.1c-7.2-18-57.7-61.3-129.9-61.3c-108.2,0-180.4,86.6-180.4,194.8c0,115.5,90.2,191.2,187.6,191.2c57.7,0,108.2-25.3,140.7-72.2
		v18c7.2,46.9,43.3,64.9,93.8,64.9c90.2,0,155.2-79.4,155.2-205.7C1021.9,197.5,866.8,49.6,657.5,49.6z"/>
</g>
</svg>
