<?xml version="1.0" encoding="utf-8"?>
<!-- Generator: Adobe Illustrator 18.1.0, SVG Export Plug-In . SVG Version: 6.00 Build 0)  -->
<svg version="1.1" id="Calque_1" xmlns="http://www.w3.org/2000/svg" xmlns:xlink="http://www.w3.org/1999/xlink" x="0px" y="0px"
	 width="100px" height="100px" viewBox="-419 180.5 100 100" style="enable-background:new -419 180.5 100 100;"
	 xml:space="preserve">
<style type="text/css">
	.st0{fill:#4D4D4D;}
	.st1{fill:#FFFFFF;}
</style>
<g>
	<circle class="st0" cx="-369" cy="230.5" r="50"/>
	<g>
		<g>
			<path class="st1" d="M-346.6,205.3h-12.6v-2.1c0-1.1-0.9-2.2-2-2.2h-13.7c-1,0-1.6,1.1-1.6,2.2v2.1h-11.8c-1.3,0-2.3,1.2-2.3,2.6
				c0,0.1,0,0.1,0,0.3l0,0v2.3h46.1v-2.3h0.1c0-0.2,0-0.3,0-0.3C-344.3,206.5-345.3,205.3-346.6,205.3z M-373.5,205.3v-0.8
				c0-0.7,0.2-1.2,0.9-1.2h9.2c0.6,0,1.2,0.5,1.2,1.2v0.8h-0.1h-11.6C-373.8,205.3-373.5,205.3-373.5,205.3z"/>
		</g>
		<path class="st1" d="M-345.4,212.8h-43.9l1.4,44.3l0,0c0,1,1,1.8,2.1,1.8h36.9c1.1,0,2.1-0.8,2.1-1.8l0.1-2.2l0,0L-345.4,212.8z
			 M-380.3,254.1l-1-37h3.6l1,37H-380.3z M-366.2,254.1h-3.6v-37h3.6V254.1z M-355.8,254.1h-3.6l1-37h3.6L-355.8,254.1z"/>
	</g>
</g>
</svg>
