<?xml version="1.0" encoding="utf-8"?>
<!-- Generator: Adobe Illustrator 18.1.0, SVG Export Plug-In . SVG Version: 6.00 Build 0)  -->
<svg version="1.1" id="Calque_1" xmlns="http://www.w3.org/2000/svg" xmlns:xlink="http://www.w3.org/1999/xlink" x="0px" y="0px"
	 width="100px" height="100px" viewBox="0 0 100 100" style="enable-background:new 0 0 100 100;" xml:space="preserve">
<style type="text/css">
	.st0{fill:#E35252;}
</style>
<g id="calendar_1_">
	<path class="st0" d="M91.7,9.4H78.1V3.1C78.1,1.4,76.7,0,75,0s-3.1,1.4-3.1,3.1v6.2H53.1V3.1C53.1,1.4,51.7,0,50,0
		s-3.1,1.4-3.1,3.1v6.2H28.1V3.1C28.1,1.4,26.7,0,25,0s-3.1,1.4-3.1,3.1v6.2H8.3C3.7,9.4,0,13.1,0,17.7v74c0,4.6,3.7,8.3,8.3,8.3
		h83.3c4.6,0,8.3-3.7,8.3-8.3v-74C100,13.1,96.3,9.4,91.7,9.4z M93.8,91.7c0,1.2-0.9,2.1-2.1,2.1H8.3c-1.2,0-2.1-0.9-2.1-2.1v-74
		c0-1.1,0.9-2.1,2.1-2.1h13.5v6.2c0,1.7,1.4,3.1,3.1,3.1s3.1-1.4,3.1-3.1v-6.2h18.8v6.2c0,1.7,1.4,3.1,3.1,3.1s3.1-1.4,3.1-3.1v-6.2
		h18.8v6.2c0,1.7,1.4,3.1,3.1,3.1s3.1-1.4,3.1-3.1v-6.2h13.5c1.1,0,2.1,0.9,2.1,2.1V91.7z"/>
	<rect x="21.9" y="37.5" class="st0" width="12.5" height="9.4"/>
	<rect x="21.9" y="53.1" class="st0" width="12.5" height="9.4"/>
	<rect x="21.9" y="68.8" class="st0" width="12.5" height="9.4"/>
	<rect x="43.7" y="68.8" class="st0" width="12.5" height="9.4"/>
	<rect x="43.7" y="53.1" class="st0" width="12.5" height="9.4"/>
	<rect x="43.7" y="37.5" class="st0" width="12.5" height="9.4"/>
	<rect x="65.6" y="68.8" class="st0" width="12.5" height="9.4"/>
	<rect x="65.6" y="53.1" class="st0" width="12.5" height="9.4"/>
	<rect x="65.6" y="37.5" class="st0" width="12.5" height="9.4"/>
</g>
</svg>
