<?xml version="1.0" encoding="utf-8"?>
<!-- Generator: Adobe Illustrator 18.1.0, SVG Export Plug-In . SVG Version: 6.00 Build 0)  -->
<svg version="1.1" id="Calque_1" xmlns="http://www.w3.org/2000/svg" xmlns:xlink="http://www.w3.org/1999/xlink" x="0px" y="0px"
	 width="106.7px" height="112.9px" viewBox="-649.4 329 106.7 112.9" enable-background="new -649.4 329 106.7 112.9"
	 xml:space="preserve">
<path fill="#E35252" d="M-551.2,369c-10.2-26.6-28.5-42.6-35-39.7c-5.4,2.4-3.8,12.5-6.7,19c-2.9,6.5-6.5,16.1-17.4,23.7
	c-11,7.6-23.7,12.7-32.4,17.9c-8.7,5.1-6.7,14.3-5.4,17.2c1.3,2.9,5.6,8.1,14.5,8.3c8.9,0.2,13.2,0.9,17.2,8.7
	c4,7.8,9.6,17.4,9.6,17.4s0.5,1.3,8.6-2c8.1-3.4,8.7-3.1,9.4-4.9c0.7-1.8-0.9-4.2-2.7-6.9c-1.8-2.7-7.8-11.2-8.7-15
	c-0.9-3.8-1.3-5.1,4.2-6.5c5.6-1.3,13.9-1.3,21.2,1.1c7.4,2.5,18.8,10.3,22.4,10.3c3.6,0,8.9-1.1,9.4-7.4
	C-542.6,404-541,395.6-551.2,369z M-552,406.9c0,0-13.7-5.4-23.9-28.4c-7.4-16.6-5.1-35.6-5.1-35.6s8.9,2.5,20.8,27.3
	C-548.4,395.1-552,406.9-552,406.9z"/>
</svg>
