<?xml version="1.0" encoding="utf-8"?>
<!-- Generator: Adobe Illustrator 18.1.0, SVG Export Plug-In . SVG Version: 6.00 Build 0)  -->
<svg version="1.1" id="Calque_1" xmlns="http://www.w3.org/2000/svg" xmlns:xlink="http://www.w3.org/1999/xlink" x="0px" y="0px"
	 width="337px" height="139.3px" viewBox="-465.3 331.2 337 139.3" enable-background="new -465.3 331.2 337 139.3"
	 xml:space="preserve">
<g id="Logo">
	<path id="Rond" fill="#E35252" d="M-268.2,372.9c-11.1-10.8-24.7-16.2-41.1-16.2s-30,5.4-41.1,16.2c-11.1,10.8-16.6,24.3-16.6,40.4
		c0,16.2,5.6,29.6,16.6,40.5s24.7,16.2,41.1,16.2s30-5.4,41.1-16.2s16.6-24.3,16.6-40.5C-251.6,397.2-257.2,383.8-268.2,372.9z
		 M-281.8,441.5c-7.5,7.8-16.6,11.6-27.5,11.6s-20.1-3.9-27.5-11.6c-7.5-7.8-11.2-17.1-11.2-28.1c0-11.1,3.7-20.4,11.2-28.1
		c7.5-7.8,16.6-11.7,27.5-11.7c10.8,0,20.1,3.9,27.5,11.6c7.4,7.7,11.2,17.1,11.2,28.1C-270.6,424.4-274.3,433.7-281.8,441.5z"/>
	<polygon id="Accent2" fill="#E35252" points="-362.2,331.2 -374.9,343.8 -368.3,348.5 -357.3,337.5 	"/>
	<polygon id="Accent" fill="#E35252" points="-351.3,360.8 -343.7,354.8 -354.2,341.4 -364.3,351.4 	"/>
	<path id="T" fill="#E35252" d="M-309.5,415.1l24.9-25.6c-6.8-7.2-14.9-10.8-24.8-10.8L-309.5,415.1z"/>
</g>
<g id="Logo_1_">
	<path id="Rond_1_" fill="#E35252" d="M-144.9,372.9c-11.1-10.8-24.7-16.2-41.1-16.2s-30,5.4-41.1,16.2
		c-11.1,10.8-16.6,24.3-16.6,40.4c0,16.2,5.6,29.6,16.6,40.5S-202.4,470-186,470s30-5.4,41.1-16.2c11.1-10.8,16.6-24.3,16.6-40.5
		C-128.3,397.2-133.9,383.8-144.9,372.9z M-158.5,441.5c-7.5,7.8-16.6,11.6-27.5,11.6s-20.1-3.9-27.5-11.6
		c-7.5-7.8-11.2-17.1-11.2-28.1c0-11.1,3.7-20.4,11.2-28.1c7.5-7.8,16.6-11.7,27.5-11.7c10.8,0,20.1,3.9,27.5,11.6
		c7.4,7.7,11.2,17.1,11.2,28.1C-147.3,424.4-151,433.7-158.5,441.5z"/>
	<polygon id="Accent2_1_" fill="#E35252" points="-238.9,331.2 -251.6,343.8 -245,348.5 -234,337.5 	"/>
	<polygon id="Accent_1_" fill="#E35252" points="-228,360.8 -220.4,354.8 -230.9,341.4 -241,351.4 	"/>
	<path id="T_1_" fill="#E35252" d="M-186.2,415.1l24.9-25.6c-6.8-7.2-14.9-10.8-24.8-10.8L-186.2,415.1z"/>
</g>
<g>
	<g>
		<path fill="#E35252" stroke="#E35252" stroke-miterlimit="10" d="M-438.6,373.8v24.3l15.5-0.2c24.5,0,40.2,14.5,40.2,34.3
			c0,22.9-16.4,37.8-41.7,37.8c-13.4,0-29-5.1-40.1-12.9l7.6-15.5c9,7.6,20.3,11.9,30.4,11.9c14.6,0,23.5-7.6,23.5-20.3
			c0-11.4-8.9-18.5-23.3-18.5c-6.8,0-22,0.6-29.6,1.4v-59.5h68.6l0.2,17.1H-438.6z"/>
	</g>
</g>
</svg>
