<?xml version="1.0" encoding="utf-8"?>
<!-- Generator: Adobe Illustrator 18.1.0, SVG Export Plug-In . SVG Version: 6.00 Build 0)  -->
<svg version="1.1" id="Calque_1" xmlns="http://www.w3.org/2000/svg" xmlns:xlink="http://www.w3.org/1999/xlink" x="0px" y="0px"
	 width="100px" height="100px" viewBox="-589 351 100 100" style="enable-background:new -589 351 100 100;" xml:space="preserve">
<style type="text/css">
	.st0{fill:#4D4D4D;}
	.st1{fill:#EAEAEA;}
	.st2{fill:#FFFFFF;}
</style>
<g>
	<circle class="st0" cx="-539" cy="401" r="50"/>
	<g>
		
			<rect x="-562" y="393.8" transform="matrix(-0.6936 0.7203 -0.7203 -0.6936 -624.8823 1069.4091)" class="st1" width="44.3" height="16"/>
		<path class="st1" d="M-524.9,375.3L-524.9,375.3l-0.1,0.1l0,0l-2.3,2.4l11.5,11.1l2.3-2.4l0,0c0,0,0-0.1,0.1-0.2l0,0
			c1.3-1.3,0.5-4.1-1.7-6.2l-3.5-3.4C-520.8,374.7-523.6,374-524.9,375.3z"/>
		<path class="st2" d="M-563.4,414.8l-1.2,12.8l12.7-1.7L-563.4,414.8z M-563.2,421.9l4.2,4l-4.7,0.7L-563.2,421.9z"/>
	</g>
</g>
</svg>
