<?xml version="1.0" encoding="utf-8"?>
<!-- Generator: Adobe Illustrator 18.1.0, SVG Export Plug-In . SVG Version: 6.00 Build 0)  -->
<svg version="1.1" id="Calque_1" xmlns="http://www.w3.org/2000/svg" xmlns:xlink="http://www.w3.org/1999/xlink" x="0px" y="0px"
	 width="325.5px" height="138.8px" viewBox="0 0 325.5 138.8" enable-background="new 0 0 325.5 138.8" xml:space="preserve">
<g>
	<g id="Logo">
		<path id="Rond" fill="#E35252" d="M207.8,41.7c-11.1-10.8-24.7-16.2-41.1-16.2s-30,5.4-41.1,16.2S109,66,109,82.1
			c0,16.2,5.6,29.6,16.6,40.5s24.7,16.2,41.1,16.2s30-5.4,41.1-16.2c11.1-10.8,16.6-24.3,16.6-40.5C224.4,66,218.8,52.6,207.8,41.7z
			 M194.2,110.3c-7.5,7.8-16.6,11.6-27.5,11.6s-20.1-3.9-27.5-11.6c-7.5-7.8-11.2-17.1-11.2-28.1c0-11.1,3.7-20.4,11.2-28.1
			c7.5-7.8,16.6-11.7,27.5-11.7c10.8,0,20.1,3.9,27.5,11.6s11.2,17.1,11.2,28.1C205.4,93.2,201.7,102.5,194.2,110.3z"/>
		<polygon id="Accent2" fill="#E35252" points="113.8,0 101.1,12.6 107.7,17.3 118.7,6.3 		"/>
		<polygon id="Accent" fill="#E35252" points="124.7,29.6 132.3,23.6 121.8,10.2 111.7,20.2 		"/>
		<path id="T" fill="#E35252" d="M166.5,83.9l24.9-25.6c-6.8-7.2-14.9-10.8-24.8-10.8L166.5,83.9z"/>
	</g>
	<g>
		<path fill="#E35252" stroke="#E35252" stroke-miterlimit="10" d="M67.4,94.3V67.5h17.7v26.8h16.4v16.9H85.1v27.7H67.4v-27.7H13.6
			V97l38.5-70.9h18.4L33.9,94.3H67.4z"/>
	</g>
	<g>
		<path fill="#E35252" stroke="#E35252" stroke-miterlimit="10" d="M283,93.9V67.1h17.7v26.8h16.4v16.9h-16.4v27.7H283v-27.7h-53.8
			V96.6l38.5-70.9h18.4l-36.6,68.2H283z"/>
	</g>
</g>
</svg>
