<?xml version="1.0" encoding="utf-8"?>
<!-- Generator: Adobe Illustrator 18.1.0, SVG Export Plug-In . SVG Version: 6.00 Build 0)  -->
<svg version="1.1" id="Calque_1" xmlns="http://www.w3.org/2000/svg" xmlns:xlink="http://www.w3.org/1999/xlink" x="0px" y="0px"
	 width="908.2px" height="739.4px" viewBox="185.9 30.1 908.2 739.4" style="enable-background:new 185.9 30.1 908.2 739.4;"
	 xml:space="preserve">
<style type="text/css">
	.st0{fill:#FFFFFF;}
</style>
<path class="st0" d="M1094.1,115.8c-32.8,15.1-68.1,25.2-106,30.3c37.8-22.7,68.1-60.6,80.7-103.4c-35.3,20.2-75.7,37.8-118.6,45.4
	c-32.8-35.3-83.3-58-136.2-58c-103.4,0-186.7,83.3-186.7,186.7c0,15.1,2.5,27.8,5,42.9C478.4,252.1,339.6,179,248.8,65.4
	c-15.1,27.8-25.2,60.6-25.2,93.4c0,65.6,32.8,121.1,83.3,153.9c-30.3,0-58-10.1-83.3-22.7v2.5c0,90.8,63.1,166.5,148.9,181.7
	c-15.1,5-32.8,7.6-47.9,7.6c-12.6,0-22.7,0-35.3-2.5C312,552.5,382.7,608,463.4,608c-63.1,50.5-143.8,80.7-232.1,80.7
	c-15.1,0-30.3,0-45.4-2.5c83.3,53,179.1,83.3,285.1,83.3c343.1,0,529.8-285.1,529.8-529.8c0-7.6,0-15.1,0-25.2
	C1036.1,186.5,1068.9,153.7,1094.1,115.8z"/>
</svg>
