<?xml version="1.0" encoding="utf-8"?>
<!-- Generator: Adobe Illustrator 18.1.0, SVG Export Plug-In . SVG Version: 6.00 Build 0)  -->
<svg version="1.1" id="Calque_1" xmlns="http://www.w3.org/2000/svg" xmlns:xlink="http://www.w3.org/1999/xlink" x="0px" y="0px"
	 width="105px" height="68.3px" viewBox="-587 366.7 105 68.3" style="enable-background:new -587 366.7 105 68.3;"
	 xml:space="preserve">
<style type="text/css">
	.st0{fill:#E35252;stroke:#E35252;stroke-width:2;stroke-miterlimit:10;}
</style>
<path class="st0" d="M-528.6,372.5c12.4,0,22.5,10.1,22.5,22.5c0,0.1,0,0.1,0,0.2c0,0.2,0,0.3,0,0.5l-0.1,3.4h3.4
	c8.2,0,15,6.8,15,15c0,8.2-6.7,15-14.9,15h-0.7h-61c-9.2,0-16.7-7.5-16.7-16.7c0-7.1,4.5-13.4,11.3-15.8l1.9-0.6l0.3-2
	c0.8-4.8,5-8.3,9.8-8.3c1.6,0,3.1,0.4,4.5,1.1l3,1.5l1.5-3.1C-545.1,377.6-537.2,372.5-528.6,372.5 M-528.6,369.2
	c-10.3,0-19.1,6-23.3,14.7c-1.8-0.9-3.8-1.4-6-1.4c-6.6,0-12.1,4.8-13.1,11.1c-7.8,2.7-13.5,10.1-13.5,18.9c0,11,8.9,20,20,20h61.8
	l0,0c10.1-0.1,18.2-8.2,18.2-18.3s-8.2-18.3-18.3-18.3c0-0.3,0-0.5,0-0.8C-502.7,380.8-514.3,369.2-528.6,369.2L-528.6,369.2z"/>
</svg>
