<?xml version="1.0" encoding="utf-8"?>
<!-- Generator: Adobe Illustrator 18.1.0, SVG Export Plug-In . SVG Version: 6.00 Build 0)  -->
<svg version="1.1" id="Calque_1" xmlns="http://www.w3.org/2000/svg" xmlns:xlink="http://www.w3.org/1999/xlink" x="0px" y="0px"
	 viewBox="629.7 390.8 20.6 19.4" style="enable-background:new 629.7 390.8 20.6 19.4;" xml:space="preserve">
<style type="text/css">
	.st0{fill:#FFFFFF;}
</style>
<g>
	<path class="st0" d="M639.6,397.5c1.8,0,3,1.4,3,3.1c0,1.8-1.1,3.2-2.9,3.2c-1.7,0-2.9-1.5-2.9-3.2
		C636.8,398.9,637.9,397.5,639.6,397.5z M640.2,390.8c-5.9,0-10.4,4.3-10.4,9.9c0,5.5,4.4,9.5,10.1,9.5c1.7,0,4-0.6,5.3-1.6
		l-0.9-1.7c-1.3,0.9-3,1.3-4.4,1.3c-4.6,0-8.2-3.2-8.2-7.7c0-4.5,3.7-8,8.5-8c5,0,8.2,3.5,8.2,8c0,2.3-1,4-2.1,4c-0.6,0-1-0.4-1-1.2
		v-7.9h-2.5v1.5c-0.2-0.5-1.6-1.7-3.6-1.7c-3,0-5,2.4-5,5.4c0,3.2,2.5,5.3,5.2,5.3c1.6,0,3-0.7,3.9-2l0,0.5c0.2,1.3,1.2,1.8,2.6,1.8
		c2.5,0,4.3-2.2,4.3-5.7C650.3,394.9,646,390.8,640.2,390.8z"/>
</g>
</svg>
