<?xml version="1.0" encoding="utf-8"?>
<!-- Generator: Adobe Illustrator 18.1.0, SVG Export Plug-In . SVG Version: 6.00 Build 0)  -->
<svg version="1.1" id="Calque_1" xmlns="http://www.w3.org/2000/svg" xmlns:xlink="http://www.w3.org/1999/xlink" x="0px" y="0px"
	 width="100px" height="64.3px" viewBox="-589 352.5 100 64.3" style="enable-background:new -589 352.5 100 64.3;"
	 xml:space="preserve">
<style type="text/css">
	.st0{fill:none;}
	.st1{fill:#E35252;}
	.st2{fill:none;stroke:#E35252;stroke-miterlimit:10;}
</style>
<g>
	<circle class="st0" cx="-539" cy="385.1" r="8.8"/>
	<path class="st0" d="M-517.6,385.6l5.8-3.6l-1.5-6.8l-6.8-0.8l-4.7-5.9l0.8-6.8l-6.3-3l-4.9,4.9h-7.6l-4.9-4.9l-6.3,3l0.8,6.8
		l-4.7,5.9l-6.8,0.8l-1.5,6.8l5.8,3.6l1.7,7.4l-2.8,4.5h20.7c-6.1-0.9-10.8-6.1-10.8-12.4c0-7,5.7-12.6,12.6-12.6
		s12.6,5.6,12.6,12.6c0,6.3-4.7,11.6-10.8,12.5h20.7l-2.9-4.5L-517.6,385.6z"/>
	<path class="st1" d="M-526.4,385c0-7-5.7-12.6-12.6-12.6s-12.6,5.7-12.6,12.6c0,6.3,4.7,11.5,10.8,12.4h3.7
		C-531.1,396.6-526.4,391.4-526.4,385z M-539,393.9c-4.9,0-8.8-3.9-8.8-8.8c0-4.9,3.9-8.8,8.8-8.8s8.8,3.9,8.8,8.8
		C-530.2,389.9-534.1,393.9-539,393.9z"/>
	<polygon class="st1" points="-558.7,393 -560.4,385.7 -566.2,382 -564.7,375.2 -557.8,374.4 -553.1,368.5 -553.9,361.6 
		-547.6,358.6 -542.8,363.5 -535.2,363.5 -530.3,358.6 -524.1,361.6 -524.8,368.5 -520.1,374.4 -513.3,375.2 -511.8,382 
		-517.6,385.6 -519.3,393 -516.4,397.5 -510.5,397.5 -513.9,392.1 -513.2,388.8 -506.1,384.3 -509.2,370.5 -517.5,369.6 -519.6,367 
		-518.7,358.7 -531.4,352.6 -537.4,358.5 -540.8,358.5 -546.7,352.6 -559.3,358.7 -558.4,367 -560.5,369.6 -568.8,370.5 
		-571.9,384.3 -564.8,388.8 -564.1,392.1 -567.5,397.5 -561.5,397.5 	"/>
</g>
<line class="st2" x1="-567.5" y1="397.9" x2="-510.4" y2="397.9"/>
<g>
	<path class="st1" d="M-511.2,405.2v-0.9h-2.7v0.9H-511.2z M-526.2,407.1c-0.7,0-1.1-0.3-1.1-0.9c0-0.6,0.4-0.8,1.2-0.8h1.6v0.5
		C-524.6,406.7-525.3,407.1-526.2,407.1z M-524.5,408.1h1.2l0-3.8c0-1.3-0.9-2.1-2.4-2.1c-1.1,0-1.7,0.3-2.5,0.7l0.5,0.9
		c0.6-0.4,1.2-0.6,1.7-0.6c0.9,0,1.4,0.4,1.4,1.2v0.2h-1.8c-1.4,0-2.2,0.7-2.2,1.8c0,1,0.8,1.8,2.1,1.8c0.8,0,1.5-0.3,1.9-0.8V408.1
		z M-532,406.7c-0.3,0.2-0.6,0.3-0.9,0.3c-0.4,0-0.6-0.2-0.6-0.8v-2.8h1.7v-0.9h-1.7v-1.6h-1.3v1.6h-0.8v0.9h0.8v3
		c0,1.2,0.8,1.7,1.6,1.7c0.5,0,1-0.2,1.4-0.4L-532,406.7z M-543.3,404.7c0.1-0.9,0.8-1.5,1.7-1.5c1,0,1.6,0.6,1.6,1.5H-543.3z
		 M-541.6,402.2c-1.7,0-3,1.2-3,3c0,1.8,1.2,3,3,3c1,0,1.8-0.4,2.4-1l-0.7-0.7c-0.4,0.4-1,0.7-1.7,0.7c-0.9,0-1.6-0.6-1.8-1.5h4.4
		C-538.7,403.5-539.5,402.2-541.6,402.2z M-542.3,401.4l0.7-1l0.7,1h1l-1.1-1.6h-1.2l-1.1,1.6H-542.3z M-550.9,407
		c-1,0-1.8-0.8-1.8-1.9c0-1.1,0.7-1.9,1.8-1.9s1.8,0.8,1.8,1.9C-549.1,406.2-549.9,407-550.9,407z M-550.6,402.2
		c-0.9,0-1.6,0.4-2,1.1v-3.3h-1.3v8.2h1.3v-1c0.4,0.7,1.1,1.1,2.1,1.1c1.7,0,2.8-1.2,2.8-2.9C-547.8,403.4-549,402.2-550.6,402.2z
		 M-563.5,405.2v-0.9h-2.7v0.9H-563.5z"/>
</g>
</svg>
