<?xml version="1.0" encoding="utf-8"?>
<!-- Generator: Adobe Illustrator 18.1.0, SVG Export Plug-In . SVG Version: 6.00 Build 0)  -->
<svg version="1.1" id="Calque_1" xmlns="http://www.w3.org/2000/svg" xmlns:xlink="http://www.w3.org/1999/xlink" x="0px" y="0px"
	 width="440.1px" height="440.1px" viewBox="-419 180.9 440.1 440.1" enable-background="new -419 180.9 440.1 440.1"
	 xml:space="preserve">
<g>
	<path fill="#4D4D4D" d="M-99.5,285.4c-8.3,0-15,6.8-15,15.1c0,8.4,6.7,15.1,15,15.1s15-6.8,15-15.1S-91.2,285.4-99.5,285.4z"/>
	<path fill="#4D4D4D" d="M-199,180.9c-121.5,0-220,98.5-220,220s98.5,220,220,220s220-98.5,220-220S-77.4,180.9-199,180.9z
		 M-349.7,385.6c0-32.3,26-58.4,58-58.4s58,26.2,58,58.4c0,33.5-25.2,70.3-42.8,88.7c-7,7.4-15.2,17-15.2,17s-7.6-9.6-14.2-16.8
		C-323.4,455.3-349.7,416-349.7,385.6z M-292.2,520.1c-7.1,0-12.8-4.4-12.8-9.8s5.7-9.8,12.8-9.8c7.1,0,12.8,4.4,12.8,9.8
		S-285.1,520.1-292.2,520.1z M-271.5,531c-3.4-1.8-6.9-4-10.2-6.4l4.1-5.7c3.1,2.2,6.2,4.2,9.4,5.9L-271.5,531z M-248.2,538.1
		c-4-0.3-8-1.1-12.1-2.4l2.1-6.7c3.5,1.1,7.1,1.8,10.5,2.1L-248.2,538.1z M-235.8,537.4l-1.3-6.9c3.4-0.7,6.8-1.8,10-3.4l3.1,6.3
		C-227.7,535.2-231.7,536.6-235.8,537.4z M-213.7,526.6l-4.5-5.4c2.6-2.2,5.2-4.7,7.8-7.7l5.3,4.6
		C-208,521.3-210.8,524.1-213.7,526.6z M-195.1,504.9c-0.9,1.2-1.7,2.5-2.7,3.8l-5.7-4.1c0.9-1.3,1.8-2.5,2.6-3.7
		c1.3-1.9,2.6-3.8,3.7-5.7l5.9,3.7C-192.4,500.9-193.8,503-195.1,504.9z M-185.4,488.6l-6.3-3.1c1.6-3.3,3.1-6.8,4.5-10.3l6.6,2.5
		C-182.1,481.4-183.7,485-185.4,488.6z M-177,466.4l-6.8-1.8c0.9-3.4,1.8-7,2.5-11l6.9,1.3C-175.2,459-176.1,462.7-177,466.4z
		 M-171.8,438.9c-0.2,1.5-0.4,2.9-0.7,4.4l-6.9-1c0.2-1.5,0.4-3,0.7-4.4c0.3-2.4,0.7-4.7,1.1-7l6.9,1.1
		C-171.1,434.2-171.4,436.5-171.8,438.9z M-168.6,420.9l-6.8-1.6c1-4.3,2.2-8.1,3.6-11.5l6.5,2.7
		C-166.6,413.5-167.7,416.9-168.6,420.9z M-155.1,394.9c-1.9,1.9-3.6,4-5.2,6.1l-5.7-4c1.7-2.5,3.7-4.8,5.9-7
		c0.7-0.7,1.5-1.5,2.3-2.1l4.7,5.2C-153.8,393.6-154.4,394.2-155.1,394.9z M-144.3,386.7l-3.5-6.1c3.4-1.9,7.1-3.6,11.1-5l2.3,6.6
		C-137.9,383.5-141.3,385-144.3,386.7z M-123.7,379.3l-1.4-6.9c3.7-0.8,7.7-1.3,11.8-1.7l0.6,7C-116.5,378-120.2,378.6-123.7,379.3z
		 M-100.1,380.3c-4.8,0-8.7-3-8.7-6.6c0-3.7,3.9-6.6,8.7-6.6c4.8,0,8.7,3,8.7,6.6S-95.3,380.3-100.1,380.3z M-90.8,351.5
		c-4,4.2-8.7,9.8-8.7,9.8s-4.4-5.5-8.1-9.6c-10.1-11-25.1-33.5-25.1-51c0-18.5,14.9-33.5,33.2-33.5c18.4,0,33.2,15,33.2,33.5
		C-66.3,319.8-80.7,340.9-90.8,351.5z"/>
	<path fill="#4D4D4D" d="M-265.5,385.4c0-14.6-11.7-26.4-26.2-26.4s-26.2,11.8-26.2,26.4s11.7,26.4,26.2,26.4
		S-265.5,399.9-265.5,385.4z"/>
</g>
</svg>
