<?xml version="1.0" encoding="utf-8"?>
<!-- Generator: Adobe Illustrator 18.1.0, SVG Export Plug-In . SVG Version: 6.00 Build 0)  -->
<svg version="1.1" id="Calque" xmlns="http://www.w3.org/2000/svg" xmlns:xlink="http://www.w3.org/1999/xlink" x="0px" y="0px"
	 width="100px" height="112.6px" viewBox="0 0 100 112.6" style="enable-background:new 0 0 100 112.6;" xml:space="preserve">
<style type="text/css">
	.st0{fill:#E35252;}
</style>
<g id="Logo">
	<path id="Rond" class="st0" d="M86.5,33.8c-9-8.8-20.1-13.2-33.3-13.2s-24.3,4.4-33.3,13.2S6.4,53.6,6.4,66.6
		c0,13.1,4.5,24,13.5,32.8s20.1,13.1,33.3,13.1s24.3-4.4,33.3-13.1c9-8.8,13.5-19.7,13.5-32.8C100,53.6,95.5,42.6,86.5,33.8z
		 M75.5,89.5c-6.1,6.3-13.5,9.4-22.3,9.4s-16.3-3.1-22.3-9.4c-6.1-6.3-9.1-13.9-9.1-22.8c0-9,3-16.6,9.1-22.8
		c6.1-6.4,13.5-9.5,22.3-9.5c8.8,0,16.3,3.1,22.3,9.4c6.1,6.3,9.1,13.9,9.1,22.8C84.6,75.6,81.6,83.2,75.5,89.5z"/>
	<polygon id="Accent2" class="st0" points="10.3,0 0,10.2 5.3,14.1 14.3,5.1 	"/>
	<polygon id="Accent" class="st0" points="19.2,24 25.3,19.1 16.8,8.3 8.6,16.4 	"/>
	<path id="T" class="st0" d="M53,68.1l20.2-20.8c-5.5-5.8-12.1-8.8-20.1-8.8L53,68.1z"/>
</g>
</svg>
