<?xml version="1.0" encoding="utf-8"?>
<!-- Generator: Adobe Illustrator 18.1.0, SVG Export Plug-In . SVG Version: 6.00 Build 0)  -->
<svg version="1.1" id="Calque" xmlns="http://www.w3.org/2000/svg" xmlns:xlink="http://www.w3.org/1999/xlink" x="0px" y="0px"
	 viewBox="0 0 170.1 191.4" style="enable-background:new 0 0 170.1 191.4;" xml:space="preserve">
<style type="text/css">
	.st0{fill:#E35252;}
</style>
<g id="Logo">
	<path id="Rond" class="st0" d="M146.2,58.1c-15.1-14.8-33.8-22.2-56.1-22.2s-41,7.4-56.1,22.2s-22.7,33.2-22.7,55.2
		c0,22.1,7.6,40.5,22.7,55.3c15.1,14.8,33.8,22.1,56.1,22.1s41-7.4,56.1-22.1c15.1-14.8,22.7-33.2,22.7-55.3
		C168.9,91.3,161.3,72.9,146.2,58.1z M127.7,151.8c-10.2,10.6-22.7,15.8-37.6,15.8c-14.9,0-27.4-5.3-37.6-15.8
		c-10.2-10.6-15.3-23.4-15.3-38.4c0-15.1,5.1-27.9,15.3-38.4C62.7,64.3,75.2,59,90.1,59c14.8,0,27.4,5.3,37.6,15.9
		c10.2,10.6,15.3,23.4,15.3,38.4C143,128.4,137.9,141.2,127.7,151.8z"/>
	<polygon id="Accent2" class="st0" points="17.9,1.1 0.5,18.3 9.5,24.8 24.6,9.7 	"/>
	<polygon id="Accent" class="st0" points="32.8,41.6 43.1,33.3 28.8,15 15,28.7 	"/>
	<path id="T" class="st0" d="M89.8,115.7l34-35c-9.3-9.8-20.4-14.8-33.9-14.8L89.8,115.7z"/>
</g>
</svg>
