<?xml version="1.0" encoding="utf-8"?>
<!-- Generator: Adobe Illustrator 18.1.0, SVG Export Plug-In . SVG Version: 6.00 Build 0)  -->
<svg version="1.1"
	 id="Calque_1" xmlns:rdf="http://www.w3.org/1999/02/22-rdf-syntax-ns#" xmlns:dc="http://purl.org/dc/elements/1.1/" xmlns:cc="http://creativecommons.org/ns#"
     width="28px" height="42px" 
	 xmlns="http://www.w3.org/2000/svg" xmlns:xlink="http://www.w3.org/1999/xlink" x="0px" y="0px" viewBox="-485 243 38 50"
	 enable-background="new -485 243 38 50" xml:space="preserve">
<g transform="translate(0 -1028.4)">
	<path fill="#E74C3C" d="M-466,1271.4c-10.5,0-19,7.5-19,16.7c0,3,0.9,5.7,2.4,8.1c0.3,0.4,0.5,0.8,0.8,1.2l15.7,24l15.7-24
		c0.2-0.3,0.5-0.6,0.7-1l0.1-0.2c1.5-2.4,2.4-5.2,2.4-8.1C-447,1278.9-455.5,1271.4-466,1271.4z M-466,1279.7c5.2,0,9.5,3.7,9.5,8.3
		c0,4.6-4.3,8.3-9.5,8.3c-5.2,0-9.5-3.7-9.5-8.3C-475.5,1283.5-471.2,1279.7-466,1279.7z"/>
	<path fill="#C0392B" d="M-466,1277.7c-6.6,0-11.9,4.7-11.9,10.4c0,5.8,5.3,10.4,11.9,10.4c6.6,0,11.9-4.7,11.9-10.4
		C-454.1,1282.3-459.4,1277.7-466,1277.7z M-466,1281.8c3.9,0,7.1,2.8,7.1,6.2c0,3.5-3.2,6.2-7.1,6.2s-7.1-2.8-7.1-6.2
		C-473.1,1284.6-469.9,1281.8-466,1281.8z"/>
</g>
</svg>
