<?xml version="1.0" encoding="utf-8"?>
<!-- Generator: Adobe Illustrator 18.1.0, SVG Export Plug-In . SVG Version: 6.00 Build 0)  -->
<svg version="1.1"
	 id="Calque_1" xmlns:cc="http://creativecommons.org/ns#" xmlns:dc="http://purl.org/dc/elements/1.1/" xmlns:rdf="http://www.w3.org/1999/02/22-rdf-syntax-ns#"
     width="28px" height="42px" 
	 xmlns="http://www.w3.org/2000/svg" xmlns:xlink="http://www.w3.org/1999/xlink" x="0px" y="0px" viewBox="-465 260 28 42"
	 enable-background="new -465 260 28 42" xml:space="preserve">
<g transform="translate(0 -1028.4)">
	<path fill="#5369C4" d="M-450.9,1291c-7.7,0-14,5.5-14,12.3c0,2.2,0.7,4.2,1.8,6c0.2,0.3,0.4,0.6,0.6,0.9l11.6,17.7l11.6-17.7
		c0.1-0.2,0.4-0.4,0.5-0.7l0.1-0.1c1.1-1.8,1.8-3.8,1.8-6C-436.9,1296.5-443.2,1291-450.9,1291z M-450.9,1297.1c3.8,0,7,2.7,7,6.1
		s-3.2,6.1-7,6.1c-3.8,0-7-2.7-7-6.1C-457.9,1299.9-454.8,1297.1-450.9,1297.1z"/>
	<path fill="#38509B" d="M-450.9,1295.6c-4.9,0-8.8,3.5-8.8,7.7c0,4.3,3.9,7.7,8.8,7.7s8.8-3.5,8.8-7.7
		C-442.2,1299-446.1,1295.6-450.9,1295.6z M-450.9,1298.6c2.9,0,5.2,2.1,5.2,4.6c0,2.6-2.4,4.6-5.2,4.6c-2.9,0-5.2-2.1-5.2-4.6
		S-453.8,1298.6-450.9,1298.6z"/>
</g>
</svg>
