<?xml version="1.0" encoding="utf-8"?>
<!-- Generator: Adobe Illustrator 18.1.0, SVG Export Plug-In . SVG Version: 6.00 Build 0)  -->
<svg version="1.1" id="Calque_1" xmlns="http://www.w3.org/2000/svg" xmlns:xlink="http://www.w3.org/1999/xlink" x="0px" y="0px"
	 width="1262.9px" height="215.7px" viewBox="8.9 293.2 1262.9 215.7" style="enable-background:new 8.9 293.2 1262.9 215.7;"
	 xml:space="preserve">
<style type="text/css">
	.st0{fill:#FFFFFF;}
</style>
<path id="a" class="st0" d="M1138.7,468.6l-17.1,38.9h-30.7l75.1-170h30.7l75.1,170h-30.7l-17.1-38.9H1138.7z M1212.4,442
	l-30.7-70.3L1151,442H1212.4z"/>
<path id="v" class="st0" d="M1024,506.8h-32.1l-68.3-170h32.1l52.6,127l51.9-127h32.1L1024,506.8z"/>
<g id="o_logo">
	<path class="st0" d="M877.9,358c-17.1-17.1-38.2-25.3-63.5-25.3s-46.4,8.2-64.2,25.3c-17.1,17.1-25.9,37.5-25.9,62.8
		s8.9,45.7,25.9,62.8c17.1,17.1,38.2,25.3,64.2,25.3c25.3,0,46.4-8.2,63.5-25.3c17.1-17.1,25.9-37.5,25.9-62.8
		C903.9,395.6,895,374.4,877.9,358z M856.7,464.5c-11.6,12.3-25.9,17.7-43,17.7s-31.4-6.1-43-17.7c-11.6-12.3-17.7-26.6-17.7-43.7
		s6.1-31.4,17.7-43.7c11.6-12.3,25.9-17.7,43-17.7s31.4,6.1,43,17.7c11.6,12.3,17.7,26.6,17.7,43.7
		C874.5,437.9,868.4,452.2,856.7,464.5z"/>
	<polygon class="st0" points="731.8,293.2 712,312.3 722.3,319.8 740,302.7 	"/>
	<polygon class="st0" points="748.9,338.9 760.5,329.3 744.1,308.9 729.1,324.6 	"/>
	<path class="st0" d="M813.7,423.6l38.9-39.6c-10.9-10.9-23.2-17.1-38.9-17.1V423.6z"/>
</g>
<path id="r" class="st0" d="M683.3,392.1c0,28-12.3,45.7-36.9,53.2l44.4,62.1H654l-41-57.3h-37.5v57.3h-28.7V336.9h63.5
	c25.9,0,44.4,4.1,56,13C677.9,358.7,683.3,373,683.3,392.1z M645.1,416c6.1-4.8,8.9-13,8.9-24.6c0-10.9-2.7-18.4-8.9-23.2
	c-6.1-4.1-17.1-6.1-32.1-6.1h-36.9v60.8h35.5C628.1,423.6,639,421.5,645.1,416z"/>
<path id="p" class="st0" d="M483.3,351.9c11.6,10.2,17.7,25.3,17.7,45.7s-6.1,35.5-18.4,45.1s-30.7,14.3-56,14.3h-30v49.8h-28v-170
	h58.7C452.6,336.9,471.7,341.6,483.3,351.9z M462.8,422.2c5.5-6.1,8.9-15,8.9-26.6s-3.4-19.8-10.9-25.3c-7.5-4.8-18.4-7.5-34.1-7.5
	h-29.4v68.3h33.5C446.5,431.1,457.4,428.3,462.8,422.2z"/>
<path id="s" class="st0" d="M246.4,359.4c-8.2,0-15,1.4-20.5,4.8s-8.2,8.9-8.2,15.7s2.7,12.3,8.2,15.7s17.1,7.5,34.1,11.6
	c17.7,4.1,30.7,10.2,39.6,17.7s13,19.1,13,33.5c0,15-5.5,26.6-17.1,36.2c-10.9,9.6-25.9,13.7-44.4,13.7c-26.6,0-50.5-8.9-71-27.3
	l17.7-21.8c17.1,15,34.8,22.5,53.9,22.5c9.6,0,16.4-2,21.8-6.1s8.2-9.6,8.2-15.7c0-6.8-2.7-11.6-7.5-15s-13.7-6.8-26.6-10.2
	c-12.3-2.7-21.8-5.5-28.7-8.2c-6.8-2.7-12.3-6.1-17.1-9.6c-10.2-7.5-15-19.1-15-34.8s5.5-28,17.1-36.2s25.9-13,42.3-13
	c10.9,0,21.8,2,32.1,5.5c10.9,3.4,19.8,8.9,28,15l-15,21.8c-4.8-4.8-11.6-8.2-20.5-10.9C262.8,360.7,254.6,359.4,246.4,359.4z"/>
<path id="e" class="st0" d="M129.7,336.9v27.3H38.2v45.1h81.9v25.3H38.2v45.7h93.5v27.3H8.9V336.9H129.7L129.7,336.9z"/>
</svg>
