<?xml version="1.0" encoding="utf-8"?>
<!-- Generator: Adobe Illustrator 18.1.0, SVG Export Plug-In . SVG Version: 6.00 Build 0)  -->
<svg version="1.1" id="Calque_1" xmlns="http://www.w3.org/2000/svg" xmlns:xlink="http://www.w3.org/1999/xlink" x="0px" y="0px"
	 width="100px" height="17.1px" viewBox="-8 293.3 100 17.1" style="enable-background:new -8 293.3 100 17.1;"
	 xml:space="preserve">
<style type="text/css">
	.st0{fill:#E35252;}
</style>
<g>
	<path id="a" class="st0" d="M81.5,307.2l-1.4,3.1h-2.4l5.9-13.5h2.4l5.9,13.5h-2.4l-1.4-3.1H81.5z M87.3,305.1l-2.4-5.6l-2.4,5.6
		H87.3z"/>
	<path id="v" class="st0" d="M72.4,310.2h-2.5l-5.4-13.5H67l4.2,10.1l4.1-10.1h2.5L72.4,310.2z"/>
	<g id="o_logo">
		<path class="st0" d="M60.8,298.4c-1.4-1.4-3-2-5-2c-2,0-3.7,0.6-5.1,2c-1.4,1.4-2.1,3-2.1,5s0.7,3.6,2.1,5c1.4,1.4,3,2,5.1,2
			c2,0,3.7-0.6,5-2c1.4-1.4,2.1-3,2.1-5C62.9,301.4,62.2,299.7,60.8,298.4z M59.1,306.9c-0.9,1-2.1,1.4-3.4,1.4s-2.5-0.5-3.4-1.4
			c-0.9-1-1.4-2.1-1.4-3.5s0.5-2.5,1.4-3.5c0.9-1,2.1-1.4,3.4-1.4s2.5,0.5,3.4,1.4c0.9,1,1.4,2.1,1.4,3.5
			C60.5,304.8,60.1,305.9,59.1,306.9z"/>
		<polygon class="st0" points="49.2,293.3 47.7,294.8 48.5,295.4 49.9,294.1 		"/>
		<polygon class="st0" points="50.6,296.9 51.5,296.2 50.2,294.5 49,295.8 		"/>
		<path class="st0" d="M55.7,303.6l3.1-3.1c-0.9-0.9-1.8-1.4-3.1-1.4V303.6z"/>
	</g>
	<path id="r" class="st0" d="M45.4,301.1c0,2.2-1,3.6-2.9,4.2l3.5,4.9h-2.9l-3.2-4.5h-3v4.5h-2.3v-13.5h5c2.1,0,3.5,0.3,4.4,1
		C45,298.5,45.4,299.6,45.4,301.1z M42.4,303c0.5-0.4,0.7-1,0.7-1.9c0-0.9-0.2-1.5-0.7-1.8c-0.5-0.3-1.4-0.5-2.5-0.5h-2.9v4.8h2.8
		C41,303.6,41.9,303.5,42.4,303z"/>
	<path id="p" class="st0" d="M29.6,297.9c0.9,0.8,1.4,2,1.4,3.6s-0.5,2.8-1.5,3.6s-2.4,1.1-4.4,1.1h-2.4v3.9h-2.2v-13.5h4.6
		C27.1,296.8,28.6,297.1,29.6,297.9z M27.9,303.5c0.4-0.5,0.7-1.2,0.7-2.1c0-0.9-0.3-1.6-0.9-2c-0.6-0.4-1.5-0.6-2.7-0.6h-2.3v5.4
		h2.7C26.7,304.2,27.5,304,27.9,303.5z"/>
	<path id="s" class="st0" d="M10.8,298.5c-0.6,0-1.2,0.1-1.6,0.4s-0.6,0.7-0.6,1.2s0.2,1,0.6,1.2c0.4,0.3,1.4,0.6,2.7,0.9
		c1.4,0.3,2.4,0.8,3.1,1.4c0.7,0.6,1,1.5,1,2.7c0,1.2-0.4,2.1-1.4,2.9c-0.9,0.8-2.1,1.1-3.5,1.1c-2.1,0-4-0.7-5.6-2.2l1.4-1.7
		c1.4,1.2,2.8,1.8,4.3,1.8c0.8,0,1.3-0.2,1.7-0.5c0.4-0.3,0.6-0.8,0.6-1.2c0-0.5-0.2-0.9-0.6-1.2c-0.4-0.3-1.1-0.5-2.1-0.8
		c-1-0.2-1.7-0.4-2.3-0.6c-0.5-0.2-1-0.5-1.4-0.8c-0.8-0.6-1.2-1.5-1.2-2.8c0-1.2,0.4-2.2,1.4-2.9s2.1-1,3.3-1
		c0.9,0,1.7,0.2,2.5,0.4c0.9,0.3,1.6,0.7,2.2,1.2l-1.2,1.7c-0.4-0.4-0.9-0.6-1.6-0.9C12.1,298.6,11.5,298.5,10.8,298.5z"/>
	<path id="e" class="st0" d="M1.6,296.8v2.2h-7.2v3.6h6.5v2h-6.5v3.6h7.4v2.2H-8v-13.5H1.6L1.6,296.8z"/>
</g>
</svg>
