<?xml version="1.0" encoding="utf-8"?>
<!-- Generator: Adobe Illustrator 18.1.0, SVG Export Plug-In . SVG Version: 6.00 Build 0)  -->
<svg version="1.1" id="Calque_1" xmlns="http://www.w3.org/2000/svg" xmlns:xlink="http://www.w3.org/1999/xlink" x="0px" y="0px"
	 viewBox="0 0 187.5 34.5" enable-background="new 0 0 187.5 34.5" xml:space="preserve">
<path id="a" fill="#E35252" d="M166.8,27.3l-2.5,5.7h-4.5l11-24.9h4.5l11,24.9h-4.5l-2.5-5.7H166.8z M177.6,23.4l-4.5-10.3
	l-4.5,10.3H177.6z"/>
<path id="v" fill="#E35252" d="M150,32.9h-4.7L135.3,8h4.7l7.7,18.6L155.3,8h4.7L150,32.9z"/>
<g id="o_logo">
	<path fill="#E35252" d="M128.6,11.1c-2.5-2.5-5.6-3.7-9.3-3.7c-3.7,0-6.8,1.2-9.4,3.7c-2.5,2.5-3.8,5.5-3.8,9.2
		c0,3.7,1.3,6.7,3.8,9.2c2.5,2.5,5.6,3.7,9.4,3.7c3.7,0,6.8-1.2,9.3-3.7c2.5-2.5,3.8-5.5,3.8-9.2C132.4,16.6,131.1,13.5,128.6,11.1z
		 M125.5,26.7c-1.7,1.8-3.8,2.6-6.3,2.6c-2.5,0-4.6-0.9-6.3-2.6c-1.7-1.8-2.6-3.9-2.6-6.4c0-2.5,0.9-4.6,2.6-6.4
		c1.7-1.8,3.8-2.6,6.3-2.6c2.5,0,4.6,0.9,6.3,2.6c1.7,1.8,2.6,3.9,2.6,6.4C128.1,22.8,127.2,24.9,125.5,26.7z"/>
	<polygon fill="#E35252" points="107.2,1.6 104.3,4.4 105.8,5.5 108.4,3 	"/>
	<polygon fill="#E35252" points="109.7,8.3 111.4,6.9 109,3.9 106.8,6.2 	"/>
	<path fill="#E35252" d="M119.2,20.7l5.7-5.8c-1.6-1.6-3.4-2.5-5.7-2.5L119.2,20.7z"/>
</g>
<path id="r" fill="#E35252" d="M100.1,16.1c0,4.1-1.8,6.7-5.4,7.8l6.5,9.1h-5.4l-6-8.4h-5.5v8.4h-4.2V8h9.3c3.8,0,6.5,0.6,8.2,1.9
	C99.3,11.2,100.1,13.3,100.1,16.1z M94.5,19.6c0.9-0.7,1.3-1.9,1.3-3.6c0-1.6-0.4-2.7-1.3-3.4c-0.9-0.6-2.5-0.9-4.7-0.9h-5.4v8.9
	h5.2C92,20.7,93.6,20.4,94.5,19.6z"/>
<path id="p" fill="#E35252" d="M70.8,10.2c1.7,1.5,2.6,3.7,2.6,6.7c0,3-0.9,5.2-2.7,6.6c-1.8,1.4-4.5,2.1-8.2,2.1h-4.4v7.3H54V8h8.6
	C66.3,8,69.1,8.7,70.8,10.2z M67.8,20.5c0.8-0.9,1.3-2.2,1.3-3.9s-0.5-2.9-1.6-3.7c-1.1-0.7-2.7-1.1-5-1.1h-4.3v10h4.9
	C65.4,21.8,67,21.4,67.8,20.5z"/>
<path id="s" fill="#E35252" d="M36.1,11.3c-1.2,0-2.2,0.2-3,0.7c-0.8,0.5-1.2,1.3-1.2,2.3s0.4,1.8,1.2,2.3c0.8,0.5,2.5,1.1,5,1.7
	c2.6,0.6,4.5,1.5,5.8,2.6c1.3,1.1,1.9,2.8,1.9,4.9c0,2.2-0.8,3.9-2.5,5.3c-1.6,1.4-3.8,2-6.5,2c-3.9,0-7.4-1.3-10.4-4l2.6-3.2
	c2.5,2.2,5.1,3.3,7.9,3.3c1.4,0,2.4-0.3,3.2-0.9c0.8-0.6,1.2-1.4,1.2-2.3c0-1-0.4-1.7-1.1-2.2s-2-1-3.9-1.5
	c-1.8-0.4-3.2-0.8-4.2-1.2c-1-0.4-1.8-0.9-2.5-1.4c-1.5-1.1-2.2-2.8-2.2-5.1c0-2.3,0.8-4.1,2.5-5.3c1.7-1.2,3.8-1.9,6.2-1.9
	c1.6,0,3.2,0.3,4.7,0.8c1.6,0.5,2.9,1.3,4.1,2.2l-2.2,3.2c-0.7-0.7-1.7-1.2-3-1.6C38.5,11.5,37.3,11.3,36.1,11.3z"/>
<path id="e" fill="#E35252" d="M19,8v4H5.6v6.6h12v3.7h-12V29h13.7v4h-18V8L19,8L19,8z"/>
</svg>
